# xmcd CD database file
#
# Track frame offsets:
#	150
#	15570
#	35951
#	55867
#	73442
#	88219
#	111639
#	132283
#	150007
#	168284
#	194928
#	217490
#	240431
#	262890
#
# Disc length: 3655 seconds
#
# Revision: 1
# Processed by: cddbd v1.5.1PL0 Copyright (c) Steve Scherf et al.
# Submitted via: CDex 1.51
#
DISCID=d50e450e
DTITLE=Bradley Joseph - The Road Ahead
DYEAR=2004
DGENRE=New Age
TTITLE0=Rose Colored Glasses
TTITLE1=Wildflowers
TTITLE2=The Gift
TTITLE3=If I could Fly
TTITLE4=Wind Farmer
TTITLE5=Dreamers Lullaby
TTITLE6=Fridays Child
TTITLE7=Is This a Dream
TTITLE8=In The Heart of Everyone
TTITLE9=A Moments Rest
TTITLE10=The Road Ahead
TTITLE11=Seasons End
TTITLE12=Dancers Waltz
TTITLE13=Letters From Home
EXTD=YEAR: 2004
EXTT0=
EXTT1=
EXTT2=
EXTT3=
EXTT4=
EXTT5=
EXTT6=
EXTT7=
EXTT8=
EXTT9=
EXTT10=
EXTT11=
EXTT12=
EXTT13=
PLAYORDER=
